<?xml version="1.0" encoding="UTF-8" standalone="no"?>
<!DOCTYPE svg PUBLIC "-//W3C//DTD SVG 1.1//EN" "http://www.w3.org/Graphics/SVG/1.1/DTD/svg11.dtd">
<!-- Created with Vectornator (http://vectornator.io/) -->
<svg height="120.0px" stroke-miterlimit="10" style="fill-rule:nonzero;clip-rule:evenodd;stroke-linecap:round;stroke-linejoin:round;" version="1.1" viewBox="0 0 340 120" width="340.0px" xml:space="preserve" xmlns="http://www.w3.org/2000/svg" xmlns:xlink="http://www.w3.org/1999/xlink">
<defs/>
<g id="Layer-1">
<path d="M54.3125 0L0 54.3125L0 55L0 80L9.6875 80L65 80L65 120L90 120L90 60L90 55L34.6875 55L89.6875 0L54.3125 0ZM304.312 0L250 54.3125L250 55L250 80L259.688 80L315 80L315 120L340 120L340 60L340 55L284.688 55L339.688 0L304.312 0Z" fill="#ffffff" fill-rule="nonzero" opacity="1" stroke="none"/>
<path d="M170 0C136.863 0 110 26.8629 110 60C110 93.1371 136.863 120 170 120C203.137 120 230 93.1371 230 60C230 26.8629 203.137 0 170 0ZM170 25C189.33 25 205 40.67 205 60C205 79.33 189.33 95 170 95C150.67 95 135 79.33 135 60C135 40.67 150.67 25 170 25Z" fill="#2af7a1" fill-rule="nonzero" opacity="1" stroke="none"/>
</g>
</svg>
