<?xml version="1.0" encoding="UTF-8" standalone="no"?>
<!DOCTYPE svg PUBLIC "-//W3C//DTD SVG 1.1//EN" "http://www.w3.org/Graphics/SVG/1.1/DTD/svg11.dtd">
<!-- Created with Vectornator (http://vectornator.io/) -->
<svg height="557.8200468140341px" stroke-miterlimit="10" style="fill-rule:nonzero;clip-rule:evenodd;stroke-linecap:round;stroke-linejoin:round;" version="1.1" viewBox="0 0 757.22 557.82" width="757.220234450343px" xml:space="preserve" xmlns="http://www.w3.org/2000/svg" xmlns:xlink="http://www.w3.org/1999/xlink">
<defs/>
<clipPath id="ArtboardFrame">
<rect height="557.82" width="757.22" x="0" y="0"/>
</clipPath>
<g clip-path="url(#ArtboardFrame)" id="Layer-1">
<path d="M305.877 0.0273663C230.943-1.57843 163.757 67.7073 180.221 148.965C122.19 120.312 51.0004 140.67 17.4708 197.277C-17.7117 256.675 1.91667 333.345 61.3145 368.527L350.533 539.871C435.989 590.488 535.282 526.801 539.471 439.152L561.533 454.277C618.477 493.308 696.284 478.783 735.315 421.84C774.345 364.896 759.821 287.089 702.877 248.059L373.752 22.4649C351.833 7.44092 328.496 0.512078 305.877 0.0273663Z" fill="#2af7a1" fill-rule="nonzero" opacity="1" stroke="none"/>
<path d="M90.3445 218.91L90.3445 298.91L90.3445 338.91L115.344 338.91L115.344 298.91L148.719 298.91L178.719 338.91L209.969 338.91L179.188 297.848C197.009 293.811 210.344 277.952 210.344 258.91C210.344 236.819 192.436 218.91 170.344 218.91L90.3445 218.91ZM290.344 218.91C282.06 218.91 275.344 225.626 275.344 233.91C275.344 242.194 282.06 248.91 290.344 248.91C298.629 248.91 305.344 242.194 305.344 233.91C305.344 225.626 298.629 218.91 290.344 218.91ZM370.344 218.91L370.344 338.91L395.344 338.91L395.344 256.41L464.094 338.91L480.344 338.91L490.344 338.91L490.344 218.91L465.344 218.91L465.344 301.41L396.594 218.91L395.344 218.91L370.344 218.91ZM570.344 218.91C537.207 218.91 510.344 245.773 510.344 278.91C510.344 312.047 537.207 338.91 570.344 338.91C596.458 338.91 618.631 322.199 626.876 298.91L599.001 298.91C592.673 307.952 582.219 313.91 570.344 313.91C551.015 313.91 535.344 298.24 535.344 278.91C535.344 259.58 551.015 243.91 570.344 243.91C582.219 243.91 592.673 249.868 599.001 258.91L626.876 258.91C618.631 235.621 596.458 218.91 570.344 218.91ZM115.344 243.91L170.344 243.91C178.629 243.91 185.344 250.626 185.344 258.91C185.344 267.194 178.629 273.91 170.344 273.91L115.344 273.91C115.344 261.087 115.344 256.733 115.344 243.91ZM230.344 263.91L230.344 288.91L277.844 288.91L277.844 313.91L230.344 313.91L230.344 338.91L350.344 338.91L350.344 313.91L302.844 313.91L302.844 278.91L302.844 263.91L230.344 263.91Z" fill="#02171e" fill-rule="nonzero" opacity="1" stroke="none"/>
</g>
</svg>
